<?xml version="1.0" encoding="utf-8"?>
<!-- Generator: Adobe Illustrator 16.0.0, SVG Export Plug-In . SVG Version: 6.00 Build 0)  -->
<!DOCTYPE svg PUBLIC "-//W3C//DTD SVG 1.1//EN" "http://www.w3.org/Graphics/SVG/1.1/DTD/svg11.dtd">
<svg version="1.1" id="레이어_1" xmlns="http://www.w3.org/2000/svg" xmlns:xlink="http://www.w3.org/1999/xlink" x="0px"
	 y="0px" width="609px" height="462px" viewBox="0 0 609 462" enable-background="new 0 0 609 462" xml:space="preserve">
<g>
	<g>
		<path fill="#F53B59" d="M365.67,79.875c-5.33-12.995-17.851-21.392-31.896-21.392c-4.473,0-8.855,0.864-13.023,2.567
			c-0.016,0.006-0.031,0.012-0.047,0.019c-17.371,7.126-25.805,26.902-19.047,44.333L77.447,277.289
			c-5.655-3.947-12.49-6.186-19.734-6.186c-4.49,0-8.887,0.871-13.07,2.586c-17.582,7.213-26.018,27.384-18.806,44.967
			l39.968,97.432c5.331,12.994,17.851,21.392,31.896,21.392c4.49,0,8.888-0.87,13.07-2.585c8.517-3.494,15.164-10.096,18.716-18.589
			c0.955-2.284,1.647-4.632,2.093-7.009l38.81-4.857c4.845,13.367,17.649,22.73,32.367,22.73c1.424,0,2.866-0.09,4.287-0.267
			l104.507-12.997c16.296-2.027,28.532-15.187,30.046-30.893l70.326-8.801c5.471,12.639,17.808,20.771,31.627,20.771
			c4.49,0,8.888-0.869,13.07-2.586c17.582-7.213,26.019-27.384,18.807-44.965L365.67,79.875z M105.02,420.875
			c-2.349,0.963-4.811,1.452-7.319,1.452c-7.872,0-14.889-4.706-17.877-11.989l-39.968-97.433
			c-4.042-9.853,0.686-21.155,10.538-25.196c2.349-0.964,4.811-1.453,7.319-1.453c2.282,0,4.492,0.398,6.553,1.139l-12.282,9.414
			c-2.715,2.082-3.698,5.725-2.4,8.889L91.81,408.637c1.177,2.869,3.966,4.701,7.006,4.701c0.313,0,0.628-0.02,0.944-0.06
			l15.343-1.92C113.036,415.684,109.487,419.043,105.02,420.875z M309.68,398.869l-104.507,12.997
			c-0.803,0.101-1.616,0.151-2.417,0.151c-7.012,0-13.248-3.801-16.624-9.548l139.741-17.488
			C323.809,392.21,317.598,397.885,309.68,398.869z M339.701,367.98l-15.74,1.97l-139.752,17.489l-15.72,1.967l-37.51,4.695
			l-15.293,1.913l-12.056,1.509l-37.828-92.215l9.645-7.394l12.233-9.378l219.922-168.598l98.349,239.75L339.701,367.98z
			 M461.355,367.964c-1.99,4.759-5.715,8.458-10.487,10.416c-2.349,0.964-4.812,1.452-7.319,1.452
			c-6.17,0-11.813-2.893-15.404-7.649c-0.991-1.313-1.826-2.766-2.473-4.341l-4.144-10.102L320.061,110.387l-4.144-10.103
			c-0.65-1.585-1.07-3.208-1.282-4.831c-1.101-8.456,3.538-16.947,11.78-20.349c0.013-0.005,0.026-0.011,0.04-0.017
			c2.349-0.963,4.811-1.452,7.318-1.452c7.873,0,14.89,4.707,17.877,11.99l109.756,267.558
			C463.364,357.956,463.346,363.205,461.355,367.964z M495.357,191.156l72.683-29.815c2.93-1.202,4.702-4.029,4.703-7.011
			c0-0.958-0.183-1.932-0.569-2.874c-1.588-3.871-6.014-5.722-9.885-4.134l-72.684,29.815c-2.93,1.202-4.702,4.029-4.703,7.011
			c0,0.958,0.184,1.933,0.57,2.874c1.201,2.93,4.029,4.703,7.012,4.703C493.441,191.725,494.416,191.542,495.357,191.156z
			 M413.822,110.787c1.174,0.659,2.447,0.972,3.704,0.972c2.649,0,5.223-1.393,6.612-3.868l44.275-78.838
			c0.658-1.172,0.971-2.445,0.972-3.7c0.001-2.651-1.392-5.226-3.868-6.616c-3.646-2.048-8.266-0.752-10.315,2.896l-44.275,78.838
			c-0.658,1.172-0.972,2.445-0.972,3.7C409.954,106.822,411.347,109.396,413.822,110.787z M584.262,311.463l-86.885-25.034
			c-4.019-1.159-8.219,1.161-9.377,5.183c-0.201,0.699-0.298,1.402-0.299,2.096c-0.002,3.293,2.159,6.325,5.48,7.281l86.886,25.035
			c0.7,0.201,1.406,0.298,2.101,0.298c3.291,0,6.32-2.161,7.277-5.48c0.201-0.699,0.297-1.403,0.298-2.097
			C589.745,315.452,587.584,312.42,584.262,311.463z"/>
	</g>
</g>
</svg>
